<svg xmlns="http://www.w3.org/2000/svg" width="500" viewBox="0 0 375 375" height="500" version="1.0"><defs><clipPath id="a"><path d="M28.902 13.676h317.133v348H28.902Zm0 0"/></clipPath></defs><g clip-path="url(#a)"><path fill="#ff4500" d="M318.23 272.309v-78.23l13.903 7.726v62.707Zm-142.718 66.816 72.578-40.785v13.36l-60.617 34.105Zm-132.778-88.46 75.012 42.245-12.238 6.89-62.774-35.288Zm13.625-148.18v77.394l-13.625-7.727V110.07Zm143.344-66.192-72.922 42.18V63.23l60.617-33.757Zm132.5 87.77-77.3-42.876 12.44-7.238 64.86 36.121ZM228.207 96.636l12.723-7.375 91.273 50.597v14.407Zm-28.016 16.218 14.043-8.144 117.97 65.355v15.938Zm90.23 65.77 14.044 7.797v93.683l-14.043 7.864Zm-28.5 49.14v-64.87l14.669 8.148v124.723l-14.668 8.28Zm-13.831 38.837v15.867l-86.688 48.719-14.113-7.934Zm-60.617 2.992 46.293-26.031 14.39-8.075v15.246l-114.98 64.586-13.625-7.656ZM42.734 219.066l103.028 58.043-13.977 7.868-89.05-50.184Zm70.282 8.559v.14l60.343 33.895-13.488 7.586-117.137-66.05v-15.173Zm-28.778-32.086-14.043-7.934V94.758l14.043-7.793Zm28.778-48.305v64.524l-14.946-8.422V79.238l14.946-8.351Zm13.765-39.324v-13.5l86.965-50.32 11.887 6.61Zm0 47.473 60.617-33.758 60.622 33.758v64.308l-60.692 34.102-60.617-34.172v-64.238Zm0-16.082v-15.383l112.895-65.281 13.554 7.586Zm60.692-125.625L28.903 101.93v170.656l158.57 89.09 158.562-89.09V101.93L187.473 13.676"/></g></svg>